<?xml version="1.0" encoding="UTF-8"?>
<svg id="Lag_2" xmlns="http://www.w3.org/2000/svg" xmlns:xlink="http://www.w3.org/1999/xlink" viewBox="0 0 1088.98 1141.96">
  <defs>
    <style>
      .cls-1 {
        fill: url(#Ikke-navngivet_forløb_25);
      }

      .cls-2 {
        fill: #fff;
      }

      .cls-3 {
        fill: #1cb473;
      }

      .cls-4 {
        fill: url(#Ikke-navngivet_forløb_25-2);
      }

      .cls-5 {
        clip-path: url(#clippath);
      }
    </style>
    <linearGradient id="Ikke-navngivet_forløb_25" data-name="Ikke-navngivet forløb 25" x1="500.83" y1="913.09" x2="548.77" y2="-1.51" gradientUnits="userSpaceOnUse">
      <stop offset="0" stop-color="#fff"/>
      <stop offset=".43" stop-color="#fff"/>
      <stop offset=".66" stop-color="#c4e9c9"/>
      <stop offset="1" stop-color="#009245"/>
    </linearGradient>
    <clipPath id="clippath">
      <path class="cls-1" d="M503.49,2.94c-33.86,3.23-67.09,10.02-99.83,19.4-56.52,16.19-109.31,40.5-157.96,73.32-59.21,39.94-109.7,88.93-150.76,147.65-32.51,46.5-50.24,86.44-55.41,98.49C24.95,375.73,6.8,428.26,0,496.25c134.7,135.99,241.21,240.66,305.57,305.86,17.94,18.18,55.18,56.54,115.65,83.43,30.59,13.6,61.72,22.55,93.31,26.97,57.12,7.99,101.9-.4,117.62-3.8,65.9-14.24,113.88-46.69,142.6-70.82-1.74-1.69-3.46-3.4-5.17-5.14-12.43-12.23-23.44-25.03-33.07-38.4-14.96,10.57-33.64,21.88-56.09,31.75-8.05,3.55-91.22,39.07-178.57,24.33-65.37-11.03-107.49-45.88-206.33-142.74-65.93-64.61-145.62-145.56-233.99-241.91,1.51-6.61,3.79-15.98,6.95-27.12,26-91.79,69.01-153.28,78.43-166.45,28.48-39.81,62.22-74.69,100.81-104.95,31.69-24.84,65.34-45.5,100.98-61.94,19.95-9.21,55.49-24.01,102.14-34.39,32.23-7.17,91.09-16.99,164.44-9.54,71.16,7.23,124,27.46,147.5,37.4,13.84,5.86,43.96,19.35,79.3,42.31,25.37,16.48,56.64,39.92,87.67,71.52,22.19,22.59,40.69,45.73,56.13,68.19,9.78-2.25,21.78-4.22,35.54-4.82,13.58-.6,25.54.27,35.39,1.61-27.86-42.79-69.26-95.57-129.16-145.14-27.35-22.64-54.16-40.97-78.93-55.8,0,0-69.38-40.53-144.89-59.09-31.08-7.64-62.51-12.85-94.48-15.61C593.92.62,578.51,0,563.11,0c-19.9,0-39.77,1.04-59.62,2.94"/>
    </clipPath>
    <linearGradient id="Ikke-navngivet_forløb_25-2" data-name="Ikke-navngivet forløb 25" x1="-3013.05" y1="-3798.67" x2="-3016.12" y2="-3798.51" gradientTransform="translate(754572.67 599064.26) rotate(90) scale(198.51 -198.51)" xlink:href="#Ikke-navngivet_forløb_25"/>
  </defs>
  <g id="Lag_1-2" data-name="Lag_1">
    <g>
      <path class="cls-1" d="M503.49,2.94c-33.86,3.23-67.09,10.02-99.83,19.4-56.52,16.19-109.31,40.5-157.96,73.32-59.21,39.94-109.7,88.93-150.76,147.65-32.51,46.5-50.24,86.44-55.41,98.49C24.95,375.73,6.8,428.26,0,496.25c134.7,135.99,241.21,240.66,305.57,305.86,17.94,18.18,55.18,56.54,115.65,83.43,30.59,13.6,61.72,22.55,93.31,26.97,57.12,7.99,101.9-.4,117.62-3.8,65.9-14.24,113.88-46.69,142.6-70.82-1.74-1.69-3.46-3.4-5.17-5.14-12.43-12.23-23.44-25.03-33.07-38.4-14.96,10.57-33.64,21.88-56.09,31.75-8.05,3.55-91.22,39.07-178.57,24.33-65.37-11.03-107.49-45.88-206.33-142.74-65.93-64.61-145.62-145.56-233.99-241.91,1.51-6.61,3.79-15.98,6.95-27.12,26-91.79,69.01-153.28,78.43-166.45,28.48-39.81,62.22-74.69,100.81-104.95,31.69-24.84,65.34-45.5,100.98-61.94,19.95-9.21,55.49-24.01,102.14-34.39,32.23-7.17,91.09-16.99,164.44-9.54,71.16,7.23,124,27.46,147.5,37.4,13.84,5.86,43.96,19.35,79.3,42.31,25.37,16.48,56.64,39.92,87.67,71.52,22.19,22.59,40.69,45.73,56.13,68.19,9.78-2.25,21.78-4.22,35.54-4.82,13.58-.6,25.54.27,35.39,1.61-27.86-42.79-69.26-95.57-129.16-145.14-27.35-22.64-54.16-40.97-78.93-55.8,0,0-69.38-40.53-144.89-59.09-31.08-7.64-62.51-12.85-94.48-15.61C593.92.62,578.51,0,563.11,0c-19.9,0-39.77,1.04-59.62,2.94"/>
      <g class="cls-5">
        <rect class="cls-4" width="1056.82" height="920.5"/>
      </g>
    </g>
    <path class="cls-2" d="M495.49,232.53c-68.62,13.25-127.57,45.63-177.16,94.63-27.37,27.05-49,58.48-66.18,92.96-2.19,4.4-2.16,7.49,1.67,11.17,12.04,11.57,23.68,23.56,35.56,35.31,1.26,1.25,3.08,1.94,5.33,3.32,4.37-9.67,8.07-18.81,12.55-27.57,18.42-35.99,42.91-67.27,74.39-92.7,68.02-54.94,145.61-74.74,231.56-60.52,24.25,4.01,41.94,10.33,46.96,12.13,44.77,16.06,75.78,40.79,93.72,57.63,12.62-15.31,25.24-30.61,37.86-45.92-.58-.52-1.15-1.04-1.73-1.56-38.94-34.23-83.35-58.3-133.1-72.49-53.24-15.19-107.29-16.85-161.42-6.4"/>
    <path class="cls-3" d="M966.92,916.19h-24.71c-16.02,17.55-33.39,33.84-51.87,49.04-37.57,30.92-78.6,56.15-123.26,75.76-56.43,24.77-115.5,38.03-176.7,41.58-39.32,2.28-78.52-.45-117.46-7.37-68.12-12.11-131.07-37.06-188.92-74.81-35.87-23.41-59.24-45.92-100.16-84.84-20-19.02-36.01-35.37-46.95-46.8-37.81-37.53-75.61-75.06-113.42-112.59,11.29,30.66,106.71,280.11,370.05,360.41,193.32,58.95,413.4,16.69,571.65-141.29,20.61-20.58,37.71-40.78,51.64-59.08h-45.05c-.81,0-1.62.03-2.43.03s-1.62-.02-2.43-.03"/>
    <path class="cls-2" d="M519.69,677.6c-21.62,0-40.05-7.62-55.29-23.1-15.48-15.23-23.1-33.67-23.1-55.29s7.61-40.05,23.1-55.54c15.23-15.23,33.67-22.85,55.29-22.85s40.05,7.62,55.53,22.85c15.24,15.48,22.85,33.91,22.85,55.54s-7.61,40.05-22.85,55.29c-15.48,15.48-33.91,23.1-55.53,23.1M519.69,660.15c11.55.13,20.22-3.12,23.33-4.4,7.24-2.98,13.86-7.48,19.92-13.54,11.79-11.8,17.69-26.05,17.69-43s-5.9-31.21-17.69-43.25c-12.04-11.8-26.29-17.69-43.25-17.69s-31.21,5.9-43,17.69c-12.04,12.04-17.94,26.29-17.94,43.25,0,8.82,1.6,16.91,4.82,24.3,1.07,2.46,4.88,10.7,13.11,18.7,2.66,2.58,18.65,17.66,43,17.94"/>
    <path class="cls-2" d="M1037.13,541.39l-5.45.05c-1.05-2.15-2.49-4.6-4.45-7.12-4.09-5.24-8.68-8.48-11.97-10.37h21.87v-52.34h17.45v52.34h21.87v17.45h-21.87v95.83c0,14.5,11.55,26.05,26.05,26.05h8.36v17.45h-8.36c-12.04,0-22.12-4.18-30.72-12.78-8.6-8.6-12.78-18.67-12.78-30.71v-95.83Z"/>
    <path class="cls-2" d="M788.96,677.6c-3.48-2.02-7.66-4.86-11.9-8.85-3.14-2.94-5.63-5.86-7.57-8.46-17.84-.05-35.67-.09-53.51-.14l69.79-139.33c-37.63.05-75.25.09-112.88.14,4.32,1.74,10.28,4.81,16.02,10.24,2.58,2.44,4.63,4.89,6.23,7.12h2.67c3.76-.02,7.52-.04,11.28-.05,16.13-.06,32.27-.06,48.41,0l-69.78,139.33h101.24Z"/>
    <path class="cls-2" d="M924.01,599.22c0-21.63-7.62-40.05-22.85-55.54-15.23-15.23-33.67-22.85-55.29-22.85s-40.3,7.62-55.54,22.85c-15.23,15.48-22.85,33.91-22.85,55.54s7.62,40.05,22.85,55.29c23.18,23.17,39.42,23.28,55.54,23.1,26.39-.3,45.18-14.46,51.82-20.04v-24.86c-3.47,5.1-11.67,15.62-26.22,22.12-3.13,1.4-12.66,5.34-25.6,5.34-16.22,0-30.22-5.41-41.77-16.46-11.55-11.06-17.94-24.33-19.17-40.3h139.08v-4.18ZM786.16,585.95c3.19-13.76,10.32-25.06,21.38-34.15,11.06-9.09,23.83-13.51,38.33-13.51s27.27,4.42,38.33,13.51c11.06,9.09,17.94,20.4,21.13,34.15h-119.18Z"/>
    <rect class="cls-2" x="906.53" y="611.78" width="17.45" height="65.82"/>
    <path class="cls-2" d="M1010.72,538.77c-12.04-12.04-26.29-17.94-43-17.94-8.42,0-16.18,1.46-23.33,4.4-10.39,4.27-16.8,10.47-19.92,13.54-3.89,3.83-6.67,7.49-8.53,10.24,1.61,2.1,3.27,4.47,4.9,7.12,2.39,3.89,4.23,7.6,5.65,10.94,1.6-4.04,4.68-10.2,10.51-16.02,6.48-6.46,13.06-9.21,14.38-9.74,5.01-2.03,10.44-3.04,16.34-3.04,12.04,0,22.12,4.18,30.72,12.78,8.6,8.6,12.78,18.67,12.78,30.72v95.83h17.45v-95.83c0-16.71-5.9-30.96-17.94-43"/>
    <path class="cls-2" d="M582.58,677.6h17.45v-44.33c-5.75,10.39-11.83,18.69-17.45,25.22v19.11Z"/>
    <path class="cls-2" d="M704.71,581.77c-.24-6.26-.63-13.67-4.14-22.47-2.97-7.46-7.56-14.29-13.8-20.53-12.04-12.04-26.29-17.94-43-17.94-8.43,0-16.18,1.45-23.33,4.4-10.47,4.31-16.87,10.52-19.92,13.54-5.42,5.37-8.56,10.39-9.6,12.12-.03.05-.06.11-.1.16,5.5,6.52,8.94,12.74,11.12,17.79,2.06-6.57,5.78-12.46,11.11-17.78,8.6-8.6,18.67-12.78,30.72-12.78s22.12,4.18,30.72,12.78c4.38,4.39,7.62,9.16,9.74,14.38,2.73,6.74,3.1,12.74,3.04,16.34v85.46c5.82-10.95,11.63-21.9,17.45-32.85.8-22.43.48-40.23,0-52.6"/>
    <path class="cls-2" d="M798.42,677.66h-38.73v-17.36h19.59c2.39,2.9,5.33,6.1,8.9,9.35,3.61,3.27,7.1,5.91,10.24,8.01"/>
  </g>
</svg>