<svg version="1.1" id="Layer_1" xmlns="http://www.w3.org/2000/svg" xmlns:xlink="http://www.w3.org/1999/xlink" x="0px" y="0px"
	 width="100%" viewBox="0 0 412 411" enable-background="new 0 0 412 411" xml:space="preserve">
<path fill="#22B573" opacity="1.000000" stroke="none" 
	d="
M194.000000,1.000000 
	C202.354233,1.000000 210.708466,1.000000 219.729340,1.382305 
	C230.142303,2.941471 240.037308,3.414375 249.605377,5.435298 
	C272.642456,10.301093 294.412018,18.694323 314.499634,31.154306 
	C333.765808,43.104755 351.002045,57.506760 365.387329,75.030136 
	C379.104218,91.739357 390.139771,110.194290 398.023926,130.372421 
	C406.198761,151.294495 411.589294,172.872070 412.040436,195.492828 
	C412.070557,197.001007 412.666962,198.497879 413.000000,200.000000 
	C413.000000,204.356903 413.000000,208.713806 412.614868,213.738068 
	C411.806641,221.493271 412.023468,228.690277 410.836517,235.647781 
	C407.689056,254.097397 403.044922,272.095032 395.454926,289.404297 
	C386.973083,308.747437 376.093750,326.504608 362.124939,342.111633 
	C346.393890,359.687561 328.522095,374.805756 307.589294,386.325470 
	C287.837006,397.195526 267.142822,404.854492 245.066315,408.997284 
	C239.389633,410.062561 233.689407,411.002472 228.000000,412.000000 
	C214.312439,412.000000 200.624878,412.000000 186.279327,411.622864 
	C181.039429,410.807404 176.385864,410.739410 171.887619,409.868835 
	C147.777512,405.202667 124.828064,397.348724 103.511108,384.908966 
	C83.189835,373.050201 65.315758,358.226715 50.081165,340.411499 
	C35.798191,323.709045 24.577774,304.965973 16.254692,284.586517 
	C9.395298,267.790985 4.671123,250.426956 2.960896,232.295853 
	C2.509610,227.511490 1.664351,222.764267 1.000000,218.000000 
	C1.000000,210.645752 1.000000,203.291504 1.383437,195.268768 
	C2.265669,178.503845 5.351186,162.866608 9.832838,147.435272 
	C16.487770,124.520821 27.157820,103.612869 41.250278,84.464943 
	C53.018162,68.475502 66.809906,54.442520 82.805969,42.557999 
	C96.741638,32.204269 111.492455,23.366182 127.579529,16.814835 
	C144.362610,9.980044 161.611343,4.892841 179.709778,2.969659 
	C184.488998,2.461808 189.237427,1.664430 194.000000,1.000000 
M107.130867,206.109116 
	C102.093040,163.095169 127.355186,132.440567 170.774918,129.939529 
	C188.881348,128.896561 207.088348,129.611862 225.249359,129.487991 
	C227.405823,129.473282 229.609253,129.442535 231.706070,129.008987 
	C236.143433,128.091476 238.814545,125.195229 238.906204,120.670845 
	C238.996002,116.238274 236.729721,113.040405 232.300980,111.809456 
	C230.724976,111.371414 229.033371,111.172699 227.393600,111.167717 
	C208.896576,111.111450 190.398880,111.037048 171.902557,111.153595 
	C167.089035,111.183922 162.216644,111.490013 157.478119,112.296791 
	C116.932076,119.200089 88.137726,153.089951 87.838333,194.065201 
	C87.544769,234.242020 116.119072,268.608307 156.061142,275.910065 
	C160.503372,276.722168 162.118530,278.579163 162.016434,283.242249 
	C161.739319,295.898102 162.015945,308.566101 162.072922,321.229279 
	C162.093765,325.861145 163.307068,329.888397 168.046677,331.767700 
	C172.556793,333.556000 175.960434,331.605621 179.224472,328.472351 
	C188.955856,319.130890 198.858765,309.968262 208.674469,300.714325 
	C217.521606,292.373566 226.544846,284.202484 235.032333,275.509277 
	C237.165314,273.324615 238.952087,269.100739 238.330643,266.406097 
	C237.708740,263.709534 234.134399,260.380615 231.374603,259.857025 
	C228.575180,259.325928 224.505432,261.125916 222.176315,263.221313 
	C210.912048,273.355286 200.054779,283.941223 189.033188,294.345673 
	C186.712051,296.536835 184.306931,298.639008 181.300400,301.361877 
	C180.872192,299.030975 180.509598,297.925323 180.490265,296.813660 
	C180.345398,288.487183 180.239090,280.159790 180.177750,271.832245 
	C180.108170,262.388641 177.632507,259.695312 168.255646,259.004883 
	C137.030899,256.705780 114.700638,237.630127 107.130867,206.109116 
M312.805695,147.723190 
	C300.081543,129.614838 282.841034,118.247612 261.285309,113.480988 
	C258.434113,112.850487 255.257675,112.576859 252.436081,113.147606 
	C245.594025,114.531601 243.305847,121.063766 248.355057,125.805130 
	C251.409378,128.673248 255.882919,130.565155 260.042969,131.633728 
	C286.977692,138.552368 307.581879,163.228363 308.157410,189.761169 
	C308.799103,219.343140 290.121948,245.006149 262.121979,253.020660 
	C259.890167,253.659470 257.549713,254.069901 255.460983,255.026093 
	C250.973053,257.080627 248.900360,261.888123 250.341110,266.213440 
	C251.958496,271.069061 255.363144,272.845490 260.927521,271.684937 
	C262.877411,271.278259 264.830048,270.853088 266.741547,270.298859 
	C320.019714,254.851273 343.489105,194.766541 312.805695,147.723190 
M130.263824,193.824188 
	C130.795059,200.519073 134.382004,205.026871 139.893661,205.926270 
	C145.115967,206.778427 150.478210,203.456436 152.376617,198.192902 
	C154.034790,193.595459 152.028549,188.200760 147.556870,185.232651 
	C140.843948,180.776886 133.300613,184.224731 130.263824,193.824188 
M181.251251,184.038437 
	C176.449234,182.333725 172.414566,183.693314 169.222260,187.409866 
	C166.183243,190.947937 165.363815,195.066483 167.359055,199.411865 
	C169.237900,203.503754 172.514465,205.790955 177.071671,205.994934 
	C182.329132,206.230255 186.701599,203.027756 188.207535,197.940857 
	C189.823120,192.483551 187.782990,188.031845 181.251251,184.038437 
M224.830521,199.118744 
	C226.422913,191.354050 223.620056,185.605759 217.418472,183.917587 
	C211.927505,182.422867 206.204895,185.370300 204.063110,190.796265 
	C201.957428,196.130798 204.213226,202.244232 209.255432,204.867889 
	C214.895798,207.802811 220.573608,205.908173 224.830521,199.118744 
z"/>
<path fill="#FFFFFF" opacity="1.000000" stroke="none" 
	d="
M413.000000,199.531342 
	C412.666962,198.497879 412.070557,197.001007 412.040436,195.492828 
	C411.589294,172.872070 406.198761,151.294495 398.023926,130.372421 
	C390.139771,110.194290 379.104218,91.739357 365.387329,75.030136 
	C351.002045,57.506760 333.765808,43.104755 314.499634,31.154306 
	C294.412018,18.694323 272.642456,10.301093 249.605377,5.435298 
	C240.037308,3.414375 230.142303,2.941471 220.197983,1.382305 
	C284.261475,1.000000 348.522949,1.000000 413.000000,1.000000 
	C413.000000,67.020737 413.000000,133.041718 413.000000,199.531342 
z"/>
<path fill="#FFFFFF" opacity="1.000000" stroke="none" 
	d="
M193.531342,1.000000 
	C189.237427,1.664430 184.488998,2.461808 179.709778,2.969659 
	C161.611343,4.892841 144.362610,9.980044 127.579529,16.814835 
	C111.492455,23.366182 96.741638,32.204269 82.805969,42.557999 
	C66.809906,54.442520 53.018162,68.475502 41.250278,84.464943 
	C27.157820,103.612869 16.487770,124.520821 9.832838,147.435272 
	C5.351186,162.866608 2.265669,178.503845 1.383437,194.800140 
	C1.000000,130.406494 1.000000,65.812981 1.000000,1.000000 
	C65.020729,1.000000 129.041702,1.000000 193.531342,1.000000 
z"/>
<path fill="#FFFFFF" opacity="1.000000" stroke="none" 
	d="
M228.468658,412.000000 
	C233.689407,411.002472 239.389633,410.062561 245.066315,408.997284 
	C267.142822,404.854492 287.837006,397.195526 307.589294,386.325470 
	C328.522095,374.805756 346.393890,359.687561 362.124939,342.111633 
	C376.093750,326.504608 386.973083,308.747437 395.454926,289.404297 
	C403.044922,272.095032 407.689056,254.097397 410.836517,235.647781 
	C412.023468,228.690277 411.806641,221.493271 412.614868,214.202728 
	C413.000000,279.924561 413.000000,345.849091 413.000000,412.000000 
	C351.645966,412.000000 290.291626,412.000000 228.468658,412.000000 
z"/>
<path fill="#FFFFFF" opacity="1.000000" stroke="none" 
	d="
M1.000000,218.468658 
	C1.664351,222.764267 2.509610,227.511490 2.960896,232.295853 
	C4.671123,250.426956 9.395298,267.790985 16.254692,284.586517 
	C24.577774,304.965973 35.798191,323.709045 50.081165,340.411499 
	C65.315758,358.226715 83.189835,373.050201 103.511108,384.908966 
	C124.828064,397.348724 147.777512,405.202667 171.887619,409.868835 
	C176.385864,410.739410 181.039429,410.807404 185.810669,411.622864 
	C124.404572,412.000000 62.809147,412.000000 1.000000,412.000000 
	C1.000000,347.645935 1.000000,283.291626 1.000000,218.468658 
z"/>
<path fill="#FDFEFE" opacity="1.000000" stroke="none" 
	d="
M107.222626,206.527405 
	C114.700638,237.630127 137.030899,256.705780 168.255646,259.004883 
	C177.632507,259.695312 180.108170,262.388641 180.177750,271.832245 
	C180.239090,280.159790 180.345398,288.487183 180.490265,296.813660 
	C180.509598,297.925323 180.872192,299.030975 181.300400,301.361877 
	C184.306931,298.639008 186.712051,296.536835 189.033188,294.345673 
	C200.054779,283.941223 210.912048,273.355286 222.176315,263.221313 
	C224.505432,261.125916 228.575180,259.325928 231.374603,259.857025 
	C234.134399,260.380615 237.708740,263.709534 238.330643,266.406097 
	C238.952087,269.100739 237.165314,273.324615 235.032333,275.509277 
	C226.544846,284.202484 217.521606,292.373566 208.674469,300.714325 
	C198.858765,309.968262 188.955856,319.130890 179.224472,328.472351 
	C175.960434,331.605621 172.556793,333.556000 168.046677,331.767700 
	C163.307068,329.888397 162.093765,325.861145 162.072922,321.229279 
	C162.015945,308.566101 161.739319,295.898102 162.016434,283.242249 
	C162.118530,278.579163 160.503372,276.722168 156.061142,275.910065 
	C116.119072,268.608307 87.544769,234.242020 87.838333,194.065201 
	C88.137726,153.089951 116.932076,119.200089 157.478119,112.296791 
	C162.216644,111.490013 167.089035,111.183922 171.902557,111.153595 
	C190.398880,111.037048 208.896576,111.111450 227.393600,111.167717 
	C229.033371,111.172699 230.724976,111.371414 232.300980,111.809456 
	C236.729721,113.040405 238.996002,116.238274 238.906204,120.670845 
	C238.814545,125.195229 236.143433,128.091476 231.706070,129.008987 
	C229.609253,129.442535 227.405823,129.473282 225.249359,129.487991 
	C207.088348,129.611862 188.881348,128.896561 170.774918,129.939529 
	C127.355186,132.440567 102.093040,163.095169 107.222626,206.527405 
z"/>
<path fill="#FDFEFE" opacity="1.000000" stroke="none" 
	d="
M312.988892,148.032532 
	C343.489105,194.766541 320.019714,254.851273 266.741547,270.298859 
	C264.830048,270.853088 262.877411,271.278259 260.927521,271.684937 
	C255.363144,272.845490 251.958496,271.069061 250.341110,266.213440 
	C248.900360,261.888123 250.973053,257.080627 255.460983,255.026093 
	C257.549713,254.069901 259.890167,253.659470 262.121979,253.020660 
	C290.121948,245.006149 308.799103,219.343140 308.157410,189.761169 
	C307.581879,163.228363 286.977692,138.552368 260.042969,131.633728 
	C255.882919,130.565155 251.409378,128.673248 248.355057,125.805130 
	C243.305847,121.063766 245.594025,114.531601 252.436081,113.147606 
	C255.257675,112.576859 258.434113,112.850487 261.285309,113.480988 
	C282.841034,118.247612 300.081543,129.614838 312.988892,148.032532 
z"/>
<path fill="#FAFDFC" opacity="1.000000" stroke="none" 
	d="
M130.347046,193.442474 
	C133.300613,184.224731 140.843948,180.776886 147.556870,185.232651 
	C152.028549,188.200760 154.034790,193.595459 152.376617,198.192902 
	C150.478210,203.456436 145.115967,206.778427 139.893661,205.926270 
	C134.382004,205.026871 130.795059,200.519073 130.347046,193.442474 
z"/>
<path fill="#F9FDFB" opacity="1.000000" stroke="none" 
	d="
M181.606110,184.174347 
	C187.782990,188.031845 189.823120,192.483551 188.207535,197.940857 
	C186.701599,203.027756 182.329132,206.230255 177.071671,205.994934 
	C172.514465,205.790955 169.237900,203.503754 167.359055,199.411865 
	C165.363815,195.066483 166.183243,190.947937 169.222260,187.409866 
	C172.414566,183.693314 176.449234,182.333725 181.606110,184.174347 
z"/>
<path fill="#F9FDFB" opacity="1.000000" stroke="none" 
	d="
M224.654114,199.453537 
	C220.573608,205.908173 214.895798,207.802811 209.255432,204.867889 
	C204.213226,202.244232 201.957428,196.130798 204.063110,190.796265 
	C206.204895,185.370300 211.927505,182.422867 217.418472,183.917587 
	C223.620056,185.605759 226.422913,191.354050 224.654114,199.453537 
z"/>
</svg>