<?xml version="1.0" encoding="UTF-8"?>
<svg id="Lag_2" xmlns="http://www.w3.org/2000/svg" xmlns:xlink="http://www.w3.org/1999/xlink" viewBox="0 0 1075.64 1162.3">
  <defs>
    <style>
      .cls-1 {
        fill: none;
      }

      .cls-2 {
        fill: #1a1a1a;
      }

      .cls-3 {
        fill: url(#Ikke-navngivet_forløb_3);
      }

      .cls-4 {
        fill: #22b573;
      }

      .cls-5 {
        clip-path: url(#clippath);
      }
    </style>
    <clipPath id="clippath">
      <path class="cls-1" d="M512.46,2.99c-34.46,3.29-68.28,10.2-101.6,19.75-57.53,16.48-111.26,41.22-160.78,74.63-60.26,40.65-111.66,90.51-153.44,150.28-33.09,47.32-51.14,87.98-56.41,100.24C25.4,382.42,6.93,435.88,0,505.09c137.09,138.42,245.51,244.94,311.01,311.3,18.26,18.5,56.17,57.55,117.71,84.92,31.13,13.85,62.82,22.95,94.98,27.45,58.14,8.13,103.71-.41,119.71-3.87,67.08-14.49,115.91-47.52,145.14-72.08-1.77-1.71-3.52-3.46-5.27-5.23-12.65-12.45-23.86-25.48-33.66-39.08-15.24,10.75-34.25,22.26-57.09,32.32-8.2,3.61-92.84,39.77-181.75,24.77-66.53-11.23-109.4-46.71-210-145.29-67.1-65.76-148.21-148.15-238.16-246.22,1.54-6.72,3.86-16.27,7.07-27.6,26.47-93.43,70.25-156.01,79.83-169.41,28.99-40.52,63.32-76.02,102.6-106.82,32.25-25.28,66.51-46.31,102.77-63.05,20.3-9.37,56.48-24.43,103.95-35,32.81-7.3,92.72-17.29,167.37-9.71,72.43,7.36,126.21,27.95,150.13,38.07,14.08,5.96,44.74,19.69,80.71,43.06,25.82,16.77,57.65,40.63,89.24,72.79,22.59,22.99,41.42,46.54,57.13,69.4,9.96-2.29,22.17-4.29,36.18-4.91,13.81-.61,26,.27,36.02,1.64-28.36-43.55-70.5-97.27-131.46-147.72-27.84-23.04-55.13-41.7-80.33-56.8,0,0-70.62-41.25-147.47-60.14-31.64-7.78-63.63-13.08-96.16-15.88-15.71-1.36-31.4-1.99-47.07-1.99-20.25,0-40.47,1.06-60.68,2.99"/>
    </clipPath>
    <linearGradient id="Ikke-navngivet_forløb_3" data-name="Ikke-navngivet forløb 3" x1="-171.43" y1="-3817.3" x2="-167.77" y2="-3817.3" gradientTransform="translate(613503.47 27526.77) rotate(90) scale(160.58 -160.58)" gradientUnits="userSpaceOnUse">
      <stop offset="0" stop-color="#22b573"/>
      <stop offset=".64" stop-color="#177a4e"/>
      <stop offset="1" stop-color="#000"/>
    </linearGradient>
  </defs>
  <g id="Lag_1-2" data-name="Lag_1">
    <g class="cls-5">
      <rect class="cls-3" y="0" width="1075.64" height="936.89"/>
    </g>
    <path d="M504.31,236.67c-69.84,13.49-129.84,46.45-180.31,96.32-27.86,27.53-49.88,59.53-67.37,94.62-2.23,4.48-2.19,7.63,1.7,11.37,12.26,11.77,24.1,23.98,36.19,35.94,1.29,1.27,3.14,1.98,5.42,3.38,4.45-9.84,8.21-19.15,12.77-28.05,18.74-36.63,43.67-68.47,75.71-94.35,69.23-55.92,148.21-76.07,235.69-61.6,24.68,4.08,42.68,10.51,47.79,12.35,45.57,16.34,77.12,41.51,95.39,58.66,12.84-15.58,25.69-31.16,38.53-46.74-.59-.53-1.17-1.06-1.76-1.58-39.63-34.84-84.84-59.34-135.47-73.78-54.19-15.45-109.2-17.15-164.29-6.52"/>
    <path class="cls-4" d="M984.15,932.5h-25.15c-16.31,17.86-33.99,34.44-52.79,49.91-38.25,31.47-80,57.16-125.46,77.11-57.43,25.21-117.56,38.7-179.85,42.32-40.02,2.32-79.92-.46-119.55-7.51-69.33-12.32-133.4-37.72-192.28-76.15-36.51-23.83-60.29-46.74-101.94-86.35-20.36-19.36-36.66-36-47.78-47.64-38.48-38.2-76.96-76.4-115.43-114.6,11.5,31.2,108.6,285.1,376.64,366.83,196.76,60,420.77,16.98,581.83-143.81,20.98-20.95,38.38-41.5,52.56-60.13h-45.85c-.83,0-1.64.03-2.47.03s-1.65-.02-2.48-.03"/>
    <path class="cls-2" d="M504.85,659.15c-21.62,0-40.05-7.62-55.29-23.1-15.48-15.23-23.1-33.67-23.1-55.29s7.61-40.05,23.1-55.54c15.23-15.23,33.67-22.85,55.29-22.85s40.05,7.62,55.53,22.85c15.24,15.48,22.85,33.91,22.85,55.54s-7.61,40.05-22.85,55.29c-15.48,15.48-33.91,23.1-55.53,23.1M504.85,641.7c11.55.13,20.22-3.12,23.33-4.4,7.24-2.98,13.86-7.48,19.92-13.54,11.79-11.8,17.69-26.05,17.69-43s-5.9-31.21-17.69-43.25c-12.04-11.8-26.29-17.69-43.25-17.69s-31.21,5.9-43,17.69c-12.04,12.04-17.94,26.29-17.94,43.25,0,8.82,1.6,16.91,4.82,24.3,1.07,2.46,4.88,10.7,13.11,18.7,2.66,2.58,18.65,17.66,43,17.94"/>
    <path class="cls-2" d="M1022.28,522.94l-5.45.05c-1.05-2.15-2.49-4.6-4.45-7.12-4.09-5.24-8.68-8.48-11.97-10.37h21.87v-52.34h17.45v52.34h21.87v17.45h-21.87v95.83c0,14.5,11.55,26.05,26.05,26.05h8.36v17.45h-8.36c-12.04,0-22.12-4.18-30.72-12.78-8.6-8.6-12.78-18.67-12.78-30.71v-95.83Z"/>
    <path class="cls-2" d="M774.11,659.15c-3.48-2.02-7.66-4.86-11.9-8.85-3.14-2.94-5.63-5.86-7.57-8.46-17.84-.05-35.67-.09-53.51-.14l69.79-139.33c-37.63.05-75.25.09-112.88.14,4.32,1.74,10.28,4.81,16.02,10.24,2.58,2.44,4.63,4.89,6.23,7.12h2.67c3.76-.02,7.52-.04,11.28-.05,16.13-.06,32.27-.06,48.41,0l-69.78,139.33h101.24Z"/>
    <path class="cls-2" d="M909.17,580.76c0-21.63-7.62-40.05-22.85-55.54-15.23-15.23-33.67-22.85-55.29-22.85s-40.3,7.62-55.54,22.85c-15.23,15.48-22.85,33.91-22.85,55.54s7.62,40.05,22.85,55.29c23.18,23.17,39.42,23.28,55.54,23.1,26.39-.3,45.18-14.46,51.82-20.04v-24.86c-3.47,5.1-11.67,15.62-26.22,22.12-3.13,1.4-12.66,5.34-25.6,5.34-16.22,0-30.22-5.41-41.77-16.46-11.55-11.06-17.94-24.33-19.17-40.3h139.08v-4.18ZM771.31,567.49c3.19-13.76,10.32-25.06,21.38-34.15,11.06-9.09,23.83-13.51,38.33-13.51s27.27,4.42,38.33,13.51c11.06,9.09,17.94,20.4,21.13,34.15h-119.18Z"/>
    <rect class="cls-2" x="891.69" y="593.33" width="17.45" height="65.82"/>
    <path class="cls-2" d="M995.88,520.31c-12.04-12.04-26.29-17.94-43-17.94-8.42,0-16.18,1.46-23.33,4.4-10.39,4.27-16.8,10.47-19.92,13.54-3.89,3.83-6.67,7.49-8.53,10.24,1.61,2.1,3.27,4.47,4.9,7.12,2.39,3.89,4.23,7.6,5.65,10.94,1.6-4.04,4.68-10.2,10.51-16.02,6.48-6.46,13.06-9.21,14.38-9.74,5.01-2.03,10.44-3.04,16.34-3.04,12.04,0,22.12,4.18,30.72,12.78,8.6,8.6,12.78,18.67,12.78,30.72v95.83h17.45v-95.83c0-16.71-5.9-30.96-17.94-43"/>
    <path class="cls-2" d="M567.74,659.15h17.45v-44.33c-5.75,10.39-11.83,18.69-17.45,25.22v19.11Z"/>
    <path class="cls-2" d="M689.86,563.32c-.24-6.26-.63-13.67-4.14-22.47-2.97-7.46-7.56-14.29-13.8-20.53-12.04-12.04-26.29-17.94-43-17.94-8.43,0-16.18,1.45-23.33,4.4-10.47,4.31-16.87,10.52-19.92,13.54-5.42,5.37-8.56,10.39-9.6,12.12-.03.05-.06.11-.1.16,5.5,6.52,8.94,12.74,11.12,17.79,2.06-6.57,5.78-12.46,11.11-17.78,8.6-8.6,18.67-12.78,30.72-12.78s22.12,4.18,30.72,12.78c4.38,4.39,7.62,9.16,9.74,14.38,2.73,6.74,3.1,12.74,3.04,16.34v85.46c5.82-10.95,11.63-21.9,17.45-32.85.8-22.43.48-40.23,0-52.6"/>
    <path class="cls-2" d="M783.58,659.21h-38.73v-17.36h19.59c2.39,2.9,5.33,6.1,8.9,9.35,3.61,3.27,7.1,5.91,10.24,8.01"/>
  </g>
</svg>